<svg id="Layer_1" data-name="Layer 1" xmlns="http://www.w3.org/2000/svg" viewBox="0 0 64 64"><title>bank transfer</title><path d="M15,7,6.5,13.81a1.27,1.27,0,0,0,.79,2.26H28.74a1.27,1.27,0,0,0,.77-2.27l-9-6.86A4.52,4.52,0,0,0,15,7Z"/><path d="M4.37,30H31.71a.33.33,0,0,0,.33-.33A1.67,1.67,0,0,0,30.37,28a.33.33,0,0,1-.33-.33v-.36A1.31,1.31,0,0,0,28.73,26H28l-.88-7a1.13,1.13,0,0,0-2.25,0l-.7,5.59A1.61,1.61,0,0,1,22.61,26H21.46a1.61,1.61,0,0,1-1.6-1.41L19.16,19a1.13,1.13,0,0,0-2.25,0l-.7,5.59A1.61,1.61,0,0,1,14.61,26H13.46a1.61,1.61,0,0,1-1.6-1.41L11.16,19a1.13,1.13,0,0,0-2.25,0L8,26H7.35A1.31,1.31,0,0,0,6,27.31v.36a.33.33,0,0,1-.33.33A1.67,1.67,0,0,0,4,29.67.33.33,0,0,0,4.37,30Z"/><path d="M35.22,44.07H56.67a1.27,1.27,0,0,0,.77-2.27l-9-6.86A4.52,4.52,0,0,0,42.9,35l-8.47,6.81A1.27,1.27,0,0,0,35.22,44.07Z"/><path d="M32.29,58H59.63a.33.33,0,0,0,.33-.33A1.67,1.67,0,0,0,58.29,56a.33.33,0,0,1-.33-.33v-.36A1.31,1.31,0,0,0,56.65,54H56l-.88-7a1.13,1.13,0,0,0-2.25,0l-.7,5.59A1.61,1.61,0,0,1,50.54,54H49.39a1.61,1.61,0,0,1-1.6-1.41L47.08,47a1.13,1.13,0,0,0-2.25,0l-.7,5.59A1.61,1.61,0,0,1,42.54,54H41.39a1.61,1.61,0,0,1-1.6-1.41L39.08,47a1.13,1.13,0,0,0-2.25,0L36,54h-.69A1.31,1.31,0,0,0,34,55.31v.36a.33.33,0,0,1-.33.33A1.67,1.67,0,0,0,32,57.67.33.33,0,0,0,32.29,58Z"/><path d="M40.66,19.7a2,2,0,0,0,.43,2.18l3.53,3.53h0a2,2,0,0,0,.31.25l.15.08.2.1.2.06.17.05a2,2,0,0,0,.78,0l.17-.05.2-.06.2-.1.15-.08a2,2,0,0,0,.31-.25h0L51,21.88a2,2,0,0,0-1.41-3.41H48A8.81,8.81,0,0,0,39.23,10H34a2,2,0,0,0,0,4h5.19A4.8,4.8,0,0,1,44,18.46H42.5A2,2,0,0,0,40.66,19.7Z"/><path d="M14.5,41.54h1.55A8.81,8.81,0,0,0,24.85,50H30a2,2,0,0,0,0-4H24.85a4.8,4.8,0,0,1-4.78-4.46h1.5A2,2,0,0,0,23,38.12l-3.53-3.53h0a2,2,0,0,0-.31-.25L19,34.26l-.2-.1-.2-.06L18.43,34a2,2,0,0,0-.78,0l-.17.05-.2.06-.2.1-.15.08a2,2,0,0,0-.31.25h0l-3.53,3.53a2,2,0,0,0,1.41,3.41Z"/></svg>