<svg width="500" height="500" viewBox="0 0 500 500" xmlns="http://www.w3.org/2000/svg"><title>johnnie-walker-logo</title><g fill="none" fill-rule="evenodd"><path d="M176.0736 283.8386c.4254.256.9107.5938 1.2558.0785.6835-.9726 1.0782-2.1841 1.6335-3.2165 1.4335-2.6636 3.1472-5.1702 4.9583-7.5813 1.326-1.778 2.6911-3.5475 4.3057-5.0849 1.4062-1.3634 2.92-2.5988 4.463-3.7847.574-.3907.4066-.5034-.188-.3907-3.6513.6774-7.342.9982-11.0154 1.4248-1.6625.2013-5.8298.8685-6.1954.9282-.0991.0188-.2375.1434-.2973.198-.5246.732-1.7907 2.4571-2.404 3.8392-2.0282 4.5355-.9705 10.8012 3.4838 13.5894M262.0166 121.3788c.1982.628.3964 1.2849.7023 1.8685.2494.4794.7432.657 1.2678.5648 1.02-.1929 1.9785-.7952 3.0088-1.0426.5946-.1348 1.1277-.3669 1.6232.0836.7911.756 1.5258 1.4828 2.6808 1.5613 1.0389.0785 1.5839-.5443 2.3835-1.0682.328-.2081 1.6147.8105 1.9103.9897.5245.3208 2.9883 1.918 2.6637.227-.2956-1.4914-.8133-2.8155-.7723-4.3888.0205-1.092.229-2.1995.7022-3.2028.2495-.529 1.7719-2.5407.5741-2.9008-.663-.203-1.6112.1928-2.1955.4505-1.0594.4846-1.9205 1.2934-3.0397 1.6552-1.6214.5204-3.8392.1194-5.312-.6911-.8321-.4607-1.6335-.9897-2.4262-1.5238-.8697-.7115-1.8112-1.4316-2.8705-1.853-.4545-.1827-1.2165-.4386-1.572.0545-.4971.6877-.3878 2.1944-.3963 3.0049-.0496 2.121.4271 4.1993 1.0678 6.2111M255.4283 104.834c.8696-.0597 1.7205.0052 2.5834.0256.5348.0103 2.146.2423 1.7598-.7712-.1589-.4147-.7022-.7491-1.008-1.046-.3178-.2764-.7518-.8174-1.1892-.901-.909-.157-2.0367.756-2.6313 1.3446-.6937.7048-.7432 1.5016.4853 1.348M318.7664 194.286c1.2473-.0085 2.5236.7064 3.6017 1.261 1.2661.6655 2.5527 1.3241 3.7607 2.0903a8.1791 8.1791 0 0 1 1.5839 1.2558c.1965.2082.176.3567.4852.2509.1863-.0683.3657-.1434.5331-.2372.3759-.203.6732-.4897.8816-.8549.9586-1.7746-.9995-2.4964-2.4262-2.708-1.0474-.157-2.0776-.3754-3.096-.6126-.3759-.0853-1.1977-.1586-1.4335-.5084-.5655-.8515.7005-1.285 1.2456-1.4829a6.9859 6.9859 0 0 0 2.3544-1.4623c2.7133-2.609 2.7133-7.1018-.0205-9.716a6.9477 6.9477 0 0 0-1.9392-1.295c-.5844-.251-1.7326-.715-2.3357-.3499-.4955.297.058 1.2047.2477 1.592.3964.8396.4477 1.7883.118 2.6432-.5947 1.488-2.1683 2.3786-3.7317 2.2745-.9602-.0648-1.7308-.529-2.4928-1.0818-.1982-.1587-.5331-.563-.8321-.3959-.3247.198-.3554.6758-.3845 1.0136-.1093.9488.0496 1.9316.376 2.8155.1486.3617.5142.785.3656 1.1518-.1965.4607-.405.918-.593 1.3736-.603 1.4436-1.2386 2.8769-1.7717 4.3495-.3452.918 1.0576.1109 1.4352-.0563 1.2558-.5734 2.6432-1.3054 4.0682-1.3105zM294.5212 373.9629c.7108-.5836 1.3071-1.4931 1.871-2.2098.6714-.8548 1.307-1.7421 1.8504-2.6926 1.1277-1.9077 1.8607-4.0082 2.462-6.1326.605-2.1415 1.5344-4.167 2.4537-6.1923.7722-1.6774 1.5958-3.4162 1.8709-5.259.475-3.138-.2273-6.5729-.6818-9.6818-.1691-1.1262-.3759-2.2558-.5245-3.4093-.0598-.4897-.3468-1.5409-1.0303-1.4487-.7415.1143-.803 1.2866-.9312 1.8394-.405 1.7832-1.0679 3.5134-1.999 5.0884-1.1175 1.8428-2.8808 3.1977-3.2071 5.4313-.2546 1.7456.5638 3.0066.9517 4.6361.4254 1.7405.1674 3.2865-.7023 4.8273-.8423 1.4777-1.8606 2.882-2.9695 4.1669-1.1687 1.3582-2.5339 2.266-3.8974 3.3786-3.3164 2.708-4.9208 6.5575-5.7392 10.6851-.1794.9488-.5963 3.5322 1.0987 3.3155.9875-.128 1.958-.9095 2.7713-1.4487 2.2041-1.5136 4.3023-3.1892 6.3526-4.8938M376.4456 424.3172c-.4357-.0392-1.09.0188-1.4933-.1757-.4271-.1963-.9021-.3174-1.3771-.384-1.6642-.2832-3.7214.087-5.037 1.1842-.7826.6382-1.4147 1.4197-2.1272 2.1142-.892.8395-1.9308 1.3685-3.0687 1.8104-1.9683.7457-3.9298 1.1962-5.999 1.5272-4.2749.6672-8.8574-.3805-12.9922-1.3497-1.179-.2645-2.3664-.5273-3.5231-.8975-.5331-.169-1.0782-.3669-1.5942-.6092-.4254-.1877-1.3241-.4692-1.6044-.8395-.2768-.4044-.2392-1.0767-.4151-1.5272-.3777-.9129-1.1192-1.4862-2.0299-1.7644-.4835-.1382-.9807-.2116-1.4745-.2593-.3759-.0307-.6049-.3669-.8184-.6587-.417-.5-.762-1.0477-1.0508-1.6261-.5741-1.162-1.138-2.2985-1.7018-3.4622-1.5941-3.3257-3.137-6.7026-4.6218-10.088-3.9298-8.9805-7.3812-18.1402-10.3712-27.4756-1.1875-3.73-2.317-7.4772-3.366-11.2431-.3554-1.319-.5929-2.7882-1.1174-4.0372-.217-.5239-.405-1.5068-1.138-1.5562-.9893-.0683-1.712 1.0135-2.1289 1.7746-1.0474 2.022-1.929 4.1071-2.7099 6.2503-.6817 1.8582-1.3173 3.7455-2.3083 5.462-.4545.7798-.9876 1.517-1.6027 2.174-.3263.331-.6629.633-1.0388.9248-.3554.2713-.8714.4897-.9995.9334-.663 2.3428.5946 4.346 1.2268 6.5438.299 1.0238 1.0217 3.1431.1794 4.097-.733.8378-2.228-.396-2.7817-.9147-1.2763-1.2012-2.158-2.8615-3.0174-4.3597-.5348-.9197-1.0986-2.0613-2.298-1.8087-1.2559.2508-2.3938 1.191-3.5027 1.8173-.446.2883-1.0781.3446-.8902.8975.545 1.8548 1.2764 3.6686 2.0572 5.4381 1.6232 3.7455 3.5744 7.3715 5.7307 10.8422 2.3134 3.73 4.7704 7.4362 7.4905 10.9018 2.8414 3.6329 5.9203 7.1275 8.5123 10.9514 1.1567 1.7046 3.8102 6.0183 4.4936 7.897.7809 2.1448 4.8764 14.1968 5.2848 15.2377 1.3464 3.3837 3.9298 6.2862 6.5918 8.7023 1.2763 1.1723 2.4142 2.5067 3.5915 3.766.4955.529.446.6671 1.1277.488 1.4762-.4386 2.9114-1.0068 4.3142-1.6347 1.9598-.8702 3.8888-1.848 5.6811-3.0305.1692-.116 1.7514-1.0665 1.7035-1.3139-.111-.5306-1.09-4.276-.7928-4.3836 2.2656-.889 4.4629-1.5562 6.8379-2.1244 3.5146-.8498 7.0668-1.7012 10.4823-2.9366 2.4143-.8788 4.6525-1.976 6.6414-3.626 2.2058-1.8326 4.1467-4.0048 5.8793-6.288 1.5634-2.0697 3.0088-4.2743 4.1075-6.6427.393-.8583.75-1.7422.9483-2.6705.1879-.9504-.9996-1.9588-1.8898-2.0476M237.4844 295.3974c2.8705-4.5525 5.9067-9.1034 9.6093-13.028 2.4245-2.551 5.4812-4.4518 8.3346-6.4534.2255-.1638 1.2267-.8002.5928-1.1023-.733-.3651-1.8982-.0102-2.6227.1792-3.5231.9248-6.7097 2.9742-9.6007 5.119-3.2856 2.447-6.3235 5.2624-8.719 8.6035-4.89 6.8202-8.461 14.3998-12.0337 21.9675-1.5839 3.3496-3.3147 6.6428-5.4231 9.6955-1.2063 1.749-2.5527 3.44-4.087 4.9177-1.712 1.6244-3.6428 3.0339-5.5718 4.3819-1.6334 1.1466-3.325 2.2268-4.9174 3.4263-1.3857 1.0324-2.9798 2.203-3.4155 3.9673-.2272.9248.0495 1.7797-.2956 2.6977-.2973.8122-.7808 1.5187-1.425 2.0869-1.0593.8992-2.4552 1.365-3.711 1.9128-1.6728.732-3.7812.9283-5.196 2.1551-1.3463.7457-.475 2.8206-.3758 3.998.4151 4.3137-4.4937 6.6428-7.9673 7.6547-3.9879 1.1654-8.244 1.6159-12.3823 1.4965-3.0686-.099-6.0262-.6024-9.0163-1.1211-1.3652-.2372-3.6018-.5426-4.6303.6484-1.0696 1.2542.8013 2.6141 1.642 3.3496 1.4454 1.2541 2.9507 2.1295 4.7601 2.7523.9295.3123 1.871.5836 2.821.7866.1588.0393 1.167.2082 1.1772.2184 4.3552.7406 8.9086.8225 13.281.285 1.7035-.2082 3.4052-.5631 5.0472-.9863 1.6232-.4163 3.4343-.9163 4.75-2.0032.6834-.5682 1.0593-1.3685.9294-2.2729-.0888-.674-.3058-1.232-.0683-1.9026.2272-.6484.8013-1.1415 1.3464-1.551.8902-.7065 1.8213-1.389 2.8004-1.9811 1.8914-1.1671 3.9503-2.0067 5.5325-3.6328.733-.7372 1.0883-1.662 1.2387-2.6722.1281-.9504.058-2.1005.6134-2.9332.6236-.9026 1.1772-1.6142 2.088-2.266.8303-.5887 1.7222-1.0733 2.573-1.6125 1.4849-.918 2.3357-2.1773 3.1473-3.7113.704-1.3241 1.3362-2.7131 2.2469-3.9041.9294-1.215 1.9888-2.3463 3.0276-3.4571 2.5424-2.7421 5.3736-5.2641 7.6802-8.2144 2.4245-3.0902 4.374-6.4892 6.216-9.9531 3.1745-5.9466 6.4106-11.8335 10.0038-17.5413M177.5481 372.4613c-5.9972.604-12.1533.8617-18.0326-.6911-.8219-.2338-1.3755-.2798-2.2058-.0597-.8714.2337-1.683.6484-2.346 1.2558-.8116.732-1.3463 1.72-1.9888 2.5852-.6339.8548-1.3173 1.696-2.0777 2.4315-.6338.616-2.3664 2.1244-2.9097.5938-.4152-1.232-.0393-2.737.3759-3.9178.663-1.8445 1.8504-3.5492 2.3356-5.4415.0889-.3856.2273-1.0511-.1691-1.29-.6339-.3942-1.2968-1.0085-1.8812-1.5033-.6834-.5682-.95-1.244-1.2063-2.0852-.1794-.5784-.475-.0204-.6629.2509-.4852.7713-.95 1.546-1.4164 2.3172-1.6232 2.7233-3.2156 5.4603-4.6509 8.274-1.307 2.5289-2.2758 5.0697-3.137 7.7827-1.0986 3.5083-2.158 7.032-3.166 10.5794-.9893 3.5083-1.7821 7.0524-2.6723 10.5947-.446 1.6961-.921 3.3854-1.5036 5.0406-.3759 1.0375-.8526 2.0169-1.5736 2.8581-.6527.7747-1.495 1.389-2.2263 2.104-1.3925 1.3582-2.7133 2.7967-3.4514 4.619-.6937 1.7508-1.2815 3.6294-1.3208 5.5167-.0102.3344-.0102.6672.0393.9965.0342.2184-.2272.5477-.3126.7474-.4443.9794-.6732 2.0663-.7877 3.1243-.4596 4.0474 1.372 7.8372 3.4155 11.2329.282.4402 1.8026.1467 2.2878.1365.5536-.0102 1.5839-.3345 1.8214.2628 1.3754 3.5918 2.8397 7.1479 4.374 10.6749 1.2764 2.9315 2.7509 5.7965 5.4334 7.7042 3.1883 2.2796 7.2548 3.6584 11.0052 4.59 3.6017.9095 7.364 1.3498 11.065 1.162 1.1874-.058 3.1181.0205 4.0886-.8292.4152-.3498.5536-1.087.692-1.5972.2478-.8395.1487-1.7387 0-2.585-.3178-1.8583-.7022-3.5493-2.1477-4.8922-1.0986-1.0084-2.346-1.8667-3.6018-2.6977-.991-.6672-2.0093-1.3156-3.0379-1.9282-.446-.2662-.663-.6467-.9687-1.087-2.276-3.2215-3.8906-6.7076-4.8798-10.5315-.95-3.6226-1.712-7.2879-1.6335-11.052.0103-.3703-.1281-.9488.2375-1.0512.4152-.128.7911-.3344 1.0884-.6381.634-.6058.803-1.2645.7228-2.0852-.0991-.8907-.9808-1.4487-1.2268-2.3377-.1777-.6092-.0991-1.215 0-1.8377.475-3.092 1.5634-6.0695 2.8106-8.9242 2.604-5.95 6.5303-11.4121 10.262-16.7035 2.7218-3.8495 5.5222-7.6598 8.4524-11.3609 1.8795-2.3564 3.829-4.6515 5.8486-6.8646.5245-.5734 1.0593-1.1382 1.5429-1.7354.2665-.3259.6834-.7798.6834-1.22.0086-.5819-1.0405-.5017-1.3874-.488M300.3664 236.0216a7432.1211 7432.1211 0 0 0 8.473-15.9066c.3468-.6587.7022-1.319 1.0593-1.9674.1162-.2491.2563-.5.3862-.7474.2067-.3754.574-.3071.9892-.4061.979-.2218 1.929-.5085 2.8705-.819 1.2473-.4164 2.4348-1.0034 3.5522-1.6655 1.0901-.6415 1.5155-1.36 2.1494-2.3923.5536-.8992 1.355-1.4828 2.117-2.1994.8902-.826 1.3242-1.7798 1.671-2.94.405-1.3089 2.6227-1.0939 3.653-1.6416 1.8197-.9675 1.2473-3.01.622-4.6105-.0684-.2082-.1572-.1075-.1863-.0598-1.0593 1.558-3.3352.4846-4.6423-.099-1.0798-.4845-3.3061-2.0117-4.5039-1.3138-.692.3958-.8406 1.5016-1.0883 2.1636-.1692.4403-.3776.86-.5656 1.285-.4938 1.1022-1.0183 2.1943-1.5138 3.2915-.6425 1.3992-1.3174 2.771-2.1973 4.032-.5143.7423-.9978 1.389-1.8009 1.8037-.8133.4095-1.6727.691-2.5338.9487-1.6523.4897-3.7214.5785-5.4317.2423-1.1499-.2287-2.5253-1.2456-3.7128-.802-1.4352.5443-1.0491 2.6397-.6134 3.7506.4374 1.1125 1.8521 1.6807 2.9303 1.918-1.6335 3.3324-2.5835 5.0268-3.8495 7.542-.991 1.9674-1.9991 3.9382-3.0106 5.9108-3.4036 6.7162-6.8481 13.4358-10.262 20.1537-4.6217 9.0538-9.2435 18.106-13.855 27.1616-4.9687 9.7365-9.9458 19.4848-14.9145 29.2213a77694.971 77694.971 0 0 1-13.4604 26.3596c-3.1473 6.1719-6.2945 12.3557-9.452 18.5225-.8116 1.6107-1.6335 3.2028-2.445 4.7982-.1692.3362-.3366.6757-.504 1.0136-.7416 1.4657-1.5037 2.9247-2.2161 4.4177-.6032 1.2712-1.6335 2.8667-1.208 4.3137.504 1.7439 2.662 1.6654 3.424.2286.2085-.377.417-.761.6049-1.1415.8611-1.5955 1.712-3.184 2.5731-4.7932 3.1678-5.9415 6.3338-11.895 9.5102-17.845 4.5329-8.4925 9.0556-16.985 13.5783-25.4894 5.177-9.716 10.3627-19.432 15.5398-29.1376a47482.8068 47482.8068 0 0 1 15.3006-28.7571c4.3364-8.1052 8.649-16.2257 12.9632-24.3445" fill="black"/><path d="M349.5846 144.551c-1.1174-2.4366-2.5339-4.7385-4.0272-6.9721-3.3147-4.9808-7.5999-9.2945-10.5097-14.533-.5245-.935-1.02-1.9026-1.3856-2.9161-.434-1.2354-.1863-2.5937-.6732-3.8052-.405-1.0136-1.5036-1.5016-2.5049-1.7098-1.4232-.3156-1.9785-.6228-2.6312-1.923-.9005-1.7985-2.3767-3.3445-3.6718-4.8631-1.531-1.8446-2.732-3.8495-3.5522-6.1087-.5331-1.4487-.7809-2.981-1.2969-4.4331-.316-.8652-.8816-.9095-1.5428-1.3549-.803-.529-1.1277-1.6398-1.4267-2.4708-.3349-.9436-1.008-1.848-2.0298-2.2285-.3657-.1348-.7416-.1638-1.138-.1825-.2853-.3362-.5433-.698-.7996-1.0477-1.396-1.8105-2.862-3.4247-4.6423-4.8341-1.3173-1.0375-2.6928-2.0272-4.07-3.005-.3929-.2815-.8508-.6466-1.3753-.4538-1.1482.4385-.3964 2.0903.0205 2.8018-1.6916-1.3053-4.0477-1.4538-6.0776-1.9776-1.266-.3362-2.5424-.988-3.6325-1.715-.5535-.3463-1.3549-.8343-1.1071-1.4725.1486-.3413.3178-.6126.3964-.7423.6219-1.0477 1.1071-1.7234 1.77-2.7472 1.9992-3.0646 4.1264-5.9056 6.8482-8.3764 1.4745-1.3498 3.137-2.6193 4.3552-4.2147.504-.6826.8304-1.3395.762-2.1842-.1486-1.8974-.979-3.7949-1.8401-5.4705-1.4267-2.807-3.3455-5.3716-5.5615-7.6052-3.0003-3.0441-6.5423-5.3665-10.3542-7.2742-3.7401-1.8735-7.6802-3.3854-11.7689-4.2693-2.6313-.5784-5.3633-.9197-8.0339-.7303-2.257.1485-5.1685.7696-5.9203 3.2063-.4135 1.3633-.3161 2.9349-.4442 4.3477-.188 2.1552-.4357 4.3034-.9107 6.4142-.2973 1.365-.7604 2.7677-.8902 4.1652-.1282 1.592 1.138 2.783 2.2263 3.7761.7142.657 2.9217 2.0118 1.8419 3.2165-.7518.8105-2.3254.4351-3.2276.2116-1.0098-.256-1.9495-.6962-2.9388-1.0375-1.1687-.3941-2.346-.7354-3.5146-1.116-2.0384-.662-4.1758-1.1756-6.3236-1.2643-1.6044-.0649-3.2156.1416-4.7209.7269-1.3173.5136-3.0584 1.3975-3.6923 2.742-.75 1.5665.1982 3.3155 1.3772 4.3683.7706.703 1.7428 1.1825 2.7115 1.5426.979.3651 1.9581.7713 2.5425 1.7097.3263.5324.1691 1.0477-.3845 1.3293-.4254.2082-.9312.2218-1.3652.4402-.3468.1724-.6732.4096-.9294.6911-1.3857 1.4623-1.2183 3.87-.9398 5.7129.2666 1.6756.9295 3.2864 1.1072 4.9706.0683.6569.0308 1.4282-.4254 1.9469-.417.4641-1.0901.5477-1.6728.6177-1.0388.128-1.02.5085-.6732 1.4026.1982.5392.6835.9095 1.1875 1.1364 1.712.761 3.4736.198 5.2557.2816 1.9598.0887 3.1473 1.1961 4.2356 2.7284.5536.7764 1.613 1.1655 2.5237.7764.9294-.401.1571-1.5425-.2085-2.08-1.4352-1.5767-1.9905-3.7216-2.3955-5.7623-.3656-1.8395-.287-3.998 1.4558-5.1106.7022-.4607 1.6727-.7968 2.5236-.5835.9397.2474 1.4335 1.1671 1.7018 2.0356.6134 2.0272.2973 4.1704 1.0097 6.1924.3366.9828.8014 1.8684 1.5532 2.6039.574.5682 1.9102 2.005 2.802 1.4316.6835-.4402.4853-1.5664.4255-2.2336-.1777-.9675-.188-1.952-.1179-2.9247.0786-1.1023.393-2.1551.7706-3.1977.3161-.8736.8612-1.215 1.8112-1.15.8013.0545 1.6026.331 2.2758.7302.8304.4693 1.8214.9488 2.2075 1.8839.3076.7712.7416 1.621.95 2.4264.287.6723.8014 1.0323 1.495 1.2405 1.6728.4897 3.4446.3225 5.1566.4095.692.0359 1.5532.0853 2.1478.4556.4562.273.4562.9675.4647 1.4282.0889 1.923 0 3.9093-.1384 5.8272-.07 1.1108-.2375 2.4862-1.6727 2.4913-.7347 0-1.5856-.2713-2.0401.4795-.5724.9487-1.0286 1.9657-1.5343 2.9502-.9295 1.8275-2.4245 3.7165-2.6706 5.7829-.099.9385.0103 1.8223-.5843 2.6431-.586.819-1.6642 1.1757-2.6432 1.1808a5.2145 5.2145 0 0 1-1.613-.2577c-.446-.1484-.8902-.3805-1.3566-.3754-.8594.0205.3878 1.191.5553 1.3003 1.5839 1.1518 3.7914 2.022 5.7785 1.8292.6937-.0649 1.3669-.2816 1.8931-.761.5331-.5051.622-1.1467.8988-1.7951.574-1.4026 1.7428-2.575 2.6637-3.7455 1.3361-1.6705 2.4946-3.4843 3.899-5.1002 1.068-1.2406 2.2264-2.418 3.0585-3.8308 1.1567-1.877 1.7308-3.8 1.958-5.979.1282-1.0836.188-2.1808.3554-3.2626.1299-.9095.3879-1.6551 1.495-1.6159.7826.0205 1.642.529 2.3938.7662.9021.278 1.8214.505 2.7526.6876 1.4045.2781 2.838.4454 4.2852.3959 1.2165-.0393 2.3766-.3362 3.4838-.831.6322-.2713 1.6813-.8651 1.6727-1.8087.0103-.0034.0206 0 .0103-.024.6817.785 1.5343 1.4385 2.2878 2.1347.5639.5239 1.413 1.1808 1.5514 1.4078.2085.2969.159.7217.188 1.063.07.732.1589 1.4777.3656 2.1739.3776 1.2303 2.0487 1.1569 2.9593 1.8275.8407.6245 1.249 2.2148 1.584 3.179.4356 1.2012.533 2.2045.3878 3.4587-.159 1.1518-.229 2.6431-.8526 3.6413-.4135.6382-1.5156.8208-1.7804-.0494-.4374.6074-1.0012 1.3446-1.724 1.621-1.2763.4897-1.6522-1.0085-1.7803-1.8787-.0701-.4931-.1777-3.6516-.5741-3.6755-.5536-.0443-1.1482.5921-1.7018.3959-.3776-.1382-.7826-.9385-1.0696-1.22-.8406-.8208-2.2451-1.5272-3.424-.9948-1.2866.5682.316 1.9128.7517 2.5646 1.584 2.3428 1.8812 5.6241 3.9076 7.6547 1.7821 1.7797 4.4458 2.9469 6.6602 4.068 1.1772.5971 2.3562 1.2439 3.4462 2.01 1.0884.761 1.871 1.79 2.9184 2.5937 1.594 1.2456 3.9195-.4045 5.394.8753 1.4523 1.2849-.0307 2.6739-1.3857 3.1482-2.069.7252-5.0096.5529-6.7404-.9095-.5058-.4248-.9397-.9402-1.425-1.389-.791-.7268-2.0691-.5937-1.8812.8157.3571 2.4708.1384 4.4229.7604 6.8442.8133 3.2028 3.2173 4.2949 5.91 5.619 1.2866.633 2.088 1.9367 3.0174 3.01.6544.732 1.5053 2.3616.7142 3.3018-.6048.7166-2.0486.302-3.0994-.2509-1.2763-.6723-2.1357-1.5664-3.1763-2.4708-2.375-2.0749-4.5722-4.9415-7.5896-6.1036-2.375-.9095-5.008-.8105-7.2958-1.9128-2.0469-.9777-3.4018-2.7165-4.62-4.556-1.1397-1.6943-3.6138-2.411-5.4932-2.8803-2.7526-.6808-5.6111-.4283-8.3927-.1075-.1384.0137-1.5241.0888-1.543.128-.1879.3464-.0307.8941.0599 1.2405.2648 1.0017.7227 2.1842 1.3754 2.9947.5331.657 1.2473 1.1313 1.83 1.7302 1.97 2.0255 1.1977 4.7983.7141 7.269-.258 1.3993-.487 2.8957-.0495 4.2847.3246 1.157.9295 2.1893 1.4233 3.2813 1.179 2.6244 1.2302 5.5934.7928 8.3816-2.1563 13.9409-7.7315 31.46-9.3923 31.5845-.4237.029-1.0593-.3651-1.3258-2.4912-1.1363-9.3355-4.1947-36.3419-18.952-61.0327-1.336-2.2285-2.802-4.4075-4.3364-6.4995-1.859-2.5254-3.9571-4.8819-6.0263-7.2247-1.8914-2.1654-3.1575-3.312-5.2556-5.2931-.188-.1775-2.2759-2.2575-2.563-1.6603-.2972.5972.1487 1.7541-.475 4.2557-.8013 3.138-1.078 3.8427-2.7713 5.9585-.5844.7457-1.3464 1.3736-1.9393 2.1551-.3263.4608-.8611 1.1126-.8406 1.3446.0393.3993 1.138.8447 1.3173.9044 2.6808.9436 5.3633 2.0647 7.6802 3.7318.4255.2969 3.3352 2.3121 2.563 3.0236-.5451.5085-1.9684.0444-2.563-.0938-1.6044-.3703-3.207-.7798-4.8097-1.1757-3.1285-.7559-6.2843-1.4094-9.5118-1.6364-2.7116-.1928-5.4334-.4453-8.0373.3106-1.8505.5392-3.7316 1.1723-5.2848 2.3087-1.3566.9897-2.8311 2.4759-.9004 3.573 2.1477 1.2252 4.2356 2.3907 6.127 3.993 2.117 1.8087 3.8205 4.7248 5.1464 7.1649 3.0089 5.486 3.8392 11.7875 5.8879 17.6522 1.999 5.6924 4.5825 11.3626 7.7588 16.5157 1.683 2.7473 3.5727 5.3068 6.1065 7.3237 1.9906 1.5818 4.1673 2.94 6.3236 4.2949 2.445 1.5271 5.0882 2.812 7.4632 4.4228 1.008.6826.6117 1.2047-.5057.9829-1.0098-.203-2.0299-.3703-3.0585-.483-6.1544-.6671-12.2114.715-18.3675.5922-2.879-.0649-6.2843-.3652-8.719-2.022-2.0982-1.4146-4.1964-4.7488-3.2567-7.3527.4955-1.3787 1.8915-.7457 2.85-.3174 1.495.662 2.9183 1.464 4.3946 2.1551 1.5138.7167 3.0772 1.3446 4.7003 1.715 1.0594.232 3.3643.8138 4.2562-.1195.7227-.7457-.446-2.1295-.8817-2.6926-1.0593-1.3788-2.2775-2.6244-3.4343-3.9195-1.3566-1.5016-2.6022-3.0885-3.9981-4.5474-6.1766-6.474-13.0452-12.2755-19.0527-18.8927-3.4736-3.8154-6.5508-8.2827-8.116-13.2379-.2665-.86-.3245-1.4282-.4834-2.3121-.217-1.162-.0598-3.1039.2477-4.2266.6339-2.4316 1.8504-4.3734 2.9593-6.6121.1196-.2167.6237-1.0034.3862-1.249-.2478-.2577-.8902.0733-1.109.1825-2.1476 1.0972-4.0186 3.2011-5.2163 5.247-2.2058 3.7318-2.3852 7.8731-1.8111 12.0537.762 5.5763 2.5236 11.006 4.3843 16.2837 2.2382 6.3646 4.9395 12.458 8.3328 18.2903 2.7714 4.7727 5.8794 9.414 9.4333 13.6389 1.4045 1.6756 3.067 3.1038 4.4834 4.7539 1.7325 2.0459 3.7504 3.3717 6.1663 4.4962 4.979 2.2933 10.2824 3.9348 15.4578 5.7436 1.8402.6381 5.8879 2.2182 7.6905 3.0048 2.2776.9846-1.5429.5836-2.2759.4949-3.5642-.3959-7.2155-.8549-10.877-1.587-5.9272-1.1807-10.0552-1.853-12.519-3.3836-1.613-1.0034-3.0977-2.2541-4.5022-3.4485-.9705-.831-1.307.2559-1.3959.9282-.2187 1.5016-.4938 3.1073-.9397 4.6003-1.6933 5.59-4.7107 10.3286-8.4628 14.7616.118-.7473.1487-1.952-.6817-2.3172-1.0781-.4743-2.3852.6177-3.1866 1.1518-2.5048 1.6398-5.0575 3.237-7.7502 4.556-4.3143 2.1056-9.2436 3.3359-14.0328 2.5066-2.0777-.3515-3.8598-1.2269-5.7597-2.051-.2273-.1092-.8424-.4352-1.0491-.1144-.4152.6723.0307 1.9419.3468 2.5852 2.3647 5.218 8.5704 7.0677 13.8842 6.9038-2.8414.8157-5.7615 1.2508-8.6593 1.8531-3.87.7952-47.2464 10.204-47.2464 55.098 0 2.8411.5946 5.846 1.6232 8.1922.9687 2.1859 2.445 3.9298 3.6718 1.918.7825-1.2696 1.0593-3.0288 1.495-4.5816.3964-1.3497.9107-2.6687 1.495-3.9433 3.9982-8.5096 11.4409-15.1814 18.9126-20.6571.4357-.3225.258-.3362-.1384-.261-2.8704.5425-5.8093 1.1415-8.5601 2.1192-1.3464.4795-2.6928.9829-3.9982 1.5767-.7124.3259-3.1865 1.3685-3.5624.6125-.4562-.9487.9585-2.3667 1.524-2.9656 5.3156-5.6429 28.6124-8.8406 36.4413-10.8626 18.6563-4.8068 33.1538-13.6986 38.8555-22.5358 1.7513-2.708-3.682-.7166-4.7107-1.7285-1.2575-1.2456 4.6013-4.0918 5.295-4.4177 2.7611-1.2815 5.7102-2.1756 8.6798-2.8172 6.7387-1.4777 13.944-2.1893 20.821-1.3344.692.0939 1.3875.1928 2.0794.3396.3452.075.6425-.4095.8714-.6228 2.2862-2.2234 4.3143-4.6993 5.7222-7.566.6817 1.6364 1.4728 3.242 2.3049 4.8136.8714 1.6057 1.8009 3.3888 3.1763 4.6345 1.0388.9453 1.8402.5972 2.3066-.6365.7433-2.0067 1.0901-4.196 1.466-6.2998.1777-1.1262.3673-2.2439.5433-3.37.07-.4454-.0598-1.6552.4955-1.6706 2.3665-.0307 4.8388 1.2354 6.9985 2.0562 2.7389 1.0323 3.7213 1.6346 6.5884 2.2336 1.8504.3805 3.7025.9402 4.8097-1.1109.7535-1.3992-.3844-1.5664-1.3139-2.3479-1.4267-1.1723-1.5258-3.3018-1.1875-5.4706.405-2.551 1.1277-4.9808 2.9388-6.7656 2.0487-2.022 4.9482-3.1534 7.4513-4.5219.4476-.2474 2.416-1.2302 1.9888-1.9776-.2956-.5085-2.8688.0102-3.3916.0051-3.3164-.0256-5.8195-.3617-9.0761-.9675-6.3543-1.162-11.094-3.4007-17.4876-4.399-2.7492-.43-5.3326-.2474-8.1142.0154-2.5254.2474-5.7392.756-8.2936.761-2.4433 0-5.5906-.198-7.383-1.0613-1.2267-.5836-3.653-2.476-1.999-3.2523.8697-.4147 2.1477-.4061 3.108-.4744 1.3361-.0887 2.662-.104 3.9981-.0938 3.0482.0256 6.1066.0648 9.1462.3856 4.9772.534 9.9544 1.645 14.6667 3.2864 1.5429-6.7008 5.4522-19.263 6.9387-25.974 1.02-4.66 2.3664-9.716 2.9986-14.0842 6.1253 1.976 11.6886 2.7523 18.5965 3.8649 6.7387 1.0818 13.5185 1.848 20.358 1.9913 4.2067.099 8.62.1825 12.7787-.5734 1.6113-.2866 3.1268-1.1006 4.5313-1.9281 1.6044-.959 3.9776-2.4265 4.1468-4.5116.1179-1.8463-.733-3.7694-1.4865-5.4109m-66.359-60.5975c-.6424.2423-1.4933-.2662-2.0093-.5836-3.829-2.3428-5.6606-6.8647-9.6468-9.0488-1.032-.5682-2.862-1.1057-4.386-2.0323-.504-.3054-1.8504-1.0579-1.958-1.6449-.1778-1.0477.7825-1.5613 3.2548-1.3156 3.5334.3567 5.5342 1.4334 7.6221 3.1721 1.6437 1.3685 2.8004 4.0884 3.7897 5.6941.8817 1.4538 1.2763 1.9367 2.3955 3.2216.4852.5392.9397.8754 1.3173 1.6415.1453.2833.0188.7389-.3793.8959m-23.543 64.7644c-.475 1.133-2.0895-1.1808-2.4244-1.546-3.7111-3.9672-7.4632-7.861-11.2136-11.7857-.8304-.8804-1.6728-1.7541-2.4946-2.6533-.5946-.6672-1.278-1.6654-.7432-2.5698.5535-.9692 1.9102-1.389 2.9097-1.6961 1.1875-.3652 4.4834-1.3685 5.3838.1723.4357.761-.5348 1.9913-.9294 2.575-.545.8104.1965 1.72.733 2.3615 1.5924 1.947 3.1968 3.7898 4.5517 5.9398 1.3173 2.0971 2.5253 4.2898 3.542 6.5592.3194.72.9926 1.8582.685 2.6431" fill="black"/><path d="M35 35h430v430H35z"/></g></svg>